<svg xmlns="http://www.w3.org/2000/svg" xmlns:xlink="http://www.w3.org/1999/xlink" width="21.5" height="21.5" viewBox="0 0 21.5 21.5">
  <defs>
    <clipPath id="clip-path">
      <rect width="21.5" height="21.5" fill="none"/>
    </clipPath>
  </defs>
  <g id="Buy_Now_Icon" data-name="Buy Now Icon" clip-path="url(#clip-path)">
    <path id="Контур_22" data-name="Контур 22" d="M19.182,11.182V4.818H2.818A1.818,1.818,0,0,1,1,3V18.455a2.727,2.727,0,0,0,2.727,2.727H19.182V14.818" transform="translate(-0.25 -0.432)" fill="none" stroke="#2b2b2b" stroke-linecap="square" stroke-miterlimit="10" stroke-width="1.5"/>
    <path id="Контур_23" data-name="Контур 23" d="M15.545,1.909V1H2.818A1.818,1.818,0,0,0,1,2.818H1A1.818,1.818,0,0,0,2.818,4.636" transform="translate(-0.25 -0.25)" fill="none" stroke="#2b2b2b" stroke-linecap="square" stroke-miterlimit="10" stroke-width="1.5"/>
    <path id="Контур_24" data-name="Контур 24" d="M22.364,15.636H17.818A1.818,1.818,0,0,1,16,13.818h0A1.818,1.818,0,0,1,17.818,12h4.545Z" transform="translate(-1.614 -1.25)" fill="none" stroke="#2b2b2b" stroke-linecap="square" stroke-miterlimit="10" stroke-width="1.5"/>
  </g>
</svg>
