<svg xmlns="http://www.w3.org/2000/svg" xmlns:xlink="http://www.w3.org/1999/xlink" width="16.951" height="20" viewBox="0 0 16.951 20">
  <defs>
    <clipPath id="clip-path">
      <rect width="16.951" height="20" fill="none"/>
    </clipPath>
  </defs>
  <g id="Paypal" clip-path="url(#clip-path)">
    <path id="Контур_35" data-name="Контур 35" d="M21.224,10.2a5.944,5.944,0,0,1-.044,2.277q-.969,4.958-6.308,4.957h-.491a.739.739,0,0,0-.493.184.8.8,0,0,0-.265.474l-.046.21-.614,3.862-.023.168a.784.784,0,0,1-.274.473.739.739,0,0,1-.5.184H9.37A.438.438,0,0,1,9,22.824a.507.507,0,0,1-.1-.4c.068-.414.164-1.041.3-1.875s.229-1.458.3-1.875.166-1.041.3-1.87.235-1.454.3-1.87a.431.431,0,0,1,.481-.412h1.461a11.429,11.429,0,0,0,2.636-.234,6.714,6.714,0,0,0,3.2-1.608,6.723,6.723,0,0,0,1.732-2.745A9.882,9.882,0,0,0,20,8.446c.007-.046.016-.073.028-.082a.037.037,0,0,1,.039-.012.42.42,0,0,1,.069.039A2.826,2.826,0,0,1,21.224,10.2ZM19.306,7.055A7.855,7.855,0,0,1,18.79,9.69a5.421,5.421,0,0,1-3.371,3.516,8.855,8.855,0,0,1-2.814.472c0,.007-.334.008-1,.008l-1-.008a1.2,1.2,0,0,0-1.318,1.07q-.022.088-.949,5.915a.119.119,0,0,1-.134.113H4.908a.538.538,0,0,1-.537-.616L6.959,3.738a.9.9,0,0,1,.882-.747h6.675a5.859,5.859,0,0,1,1.087.145,7.152,7.152,0,0,1,1.246.356,3.784,3.784,0,0,1,1.826,1.373,3.766,3.766,0,0,1,.63,2.189Z" transform="translate(-4.364 -2.991)" fill="#000"/>
  </g>
</svg>
