<svg xmlns="http://www.w3.org/2000/svg" width="20.105" height="20.105" viewBox="0 0 20.105 20.105">
  <g id="Group_52" data-name="Group 52" transform="translate(-1059.198 -47.948)">
    <path id="Path_6" data-name="Path 6" d="M11.651,10.3h0A4.455,4.455,0,0,1,7,6.074V5.228A4.455,4.455,0,0,1,11.651,1h0A4.455,4.455,0,0,1,16.3,5.228v.846A4.455,4.455,0,0,1,11.651,10.3Z" transform="translate(1057.599 47.698)" fill="none" stroke="#2b2b2b" stroke-linecap="square" stroke-miterlimit="10" stroke-width="1.5"/>
    <path id="Path_7" data-name="Path 7" d="M20.6,20.151a3.441,3.441,0,0,0-2.729-3.261A28.2,28.2,0,0,0,11.3,16a28.2,28.2,0,0,0-6.573.89A3.441,3.441,0,0,0,2,20.151V21.92H20.6Z" transform="translate(1057.948 45.383)" fill="none" stroke="#2b2b2b" stroke-linecap="square" stroke-miterlimit="10" stroke-width="1.5"/>
  </g>
</svg>
